<svg width="32" height="33" viewBox="0 0 32 33" fill="none" xmlns="http://www.w3.org/2000/svg">
<path d="M30.0014 16.8114C30.0014 15.6603 29.9061 14.8203 29.6998 13.9492H16.2871V19.1447H24.1601C24.0014 20.4359 23.1442 22.3803 21.2394 23.6869L21.2127 23.8609L25.4536 27.0805L25.7474 27.1092C28.4458 24.667 30.0014 21.0736 30.0014 16.8114Z" fill="#4285F4"/>
<path d="M16.2863 30.5007C20.1434 30.5007 23.3814 29.2562 25.7466 27.1096L21.2386 23.6872C20.0323 24.5117 18.4132 25.0872 16.2863 25.0872C12.5086 25.0872 9.30225 22.6451 8.15929 19.2695L7.99176 19.2834L3.58208 22.6279L3.52441 22.785C5.87359 27.3584 10.699 30.5007 16.2863 30.5007Z" fill="#34A853"/>
<path d="M8.16013 19.268C7.85855 18.3969 7.68401 17.4635 7.68401 16.4991C7.68401 15.5346 7.85856 14.6013 8.14427 13.7302L8.13627 13.5446L3.67132 10.1465L3.52524 10.2146C2.55703 12.1124 2.00146 14.2435 2.00146 16.4991C2.00146 18.7546 2.55703 20.8857 3.52524 22.7835L8.16013 19.268Z" fill="#FBBC05"/>
<path d="M16.2864 7.9133C18.9689 7.9133 20.7784 9.04885 21.8102 9.9978L25.8419 6.14C23.3658 3.88445 20.1435 2.5 16.2864 2.5C10.699 2.5 5.8736 5.6422 3.52441 10.2155L8.14345 13.7311C9.30229 10.3556 12.5086 7.9133 16.2864 7.9133Z" fill="#EB4335"/>
</svg>
