<svg width="33" height="33" viewBox="0 0 33 33" fill="none" xmlns="http://www.w3.org/2000/svg">
<path d="M16.08 3.42969C8.35195 3.42969 2.08533 8.40146 2.08533 14.5369C2.08533 18.5037 4.70343 21.9786 8.64635 23.9515L7.2269 29.0555C7.2269 29.0555 7.20061 29.2935 7.35307 29.3834C7.50553 29.4733 7.68954 29.4046 7.68954 29.4046C8.13114 29.3411 12.789 26.046 13.6039 25.4747C14.4082 25.5911 15.2441 25.6493 16.0906 25.6493C23.8187 25.6493 30.0853 20.6775 30.0853 14.5421C30.0853 8.40675 23.8082 3.42969 16.08 3.42969Z" fill="black"/>
<path d="M8.34125 18.4075C7.89438 18.4075 7.53164 18.0584 7.53164 17.63V12.801H6.2699C5.83355 12.801 5.48132 12.4467 5.48132 12.0077C5.48132 11.5687 5.83881 11.2143 6.2699 11.2143H10.4073C10.8437 11.2143 11.1959 11.5687 11.1959 12.0077C11.1959 12.4467 10.8384 12.801 10.4073 12.801H9.1456V17.63C9.1456 18.0531 8.7776 18.4075 8.33599 18.4075H8.34125ZM15.4227 18.3969C15.0863 18.3969 14.8286 18.2594 14.7498 18.0373L14.3502 16.9794H11.8899L11.4903 18.0373C11.4114 18.2594 11.1538 18.3969 10.8174 18.3969C10.6386 18.3969 10.4651 18.3599 10.3022 18.2911C10.0814 18.1854 9.86584 17.905 10.1129 17.1381L12.0423 12.0235C12.179 11.6321 12.5943 11.2302 13.12 11.2196C13.6458 11.209 14.0663 11.6321 14.1978 12.0235L16.1272 17.1381C16.3743 17.905 16.1587 18.1959 15.9379 18.2911C15.7802 18.3652 15.6015 18.3969 15.4227 18.3969ZM13.9244 15.5408L13.12 13.2347L12.3157 15.5408H13.9244ZM17.4257 18.2911C17.0051 18.2911 16.6529 17.9579 16.6529 17.5507V12.0235C16.6529 11.574 17.0209 11.209 17.4783 11.209C17.9357 11.209 18.3037 11.5793 18.3037 12.0235V16.7943H20.0175C20.4381 16.7943 20.7903 17.1275 20.7903 17.5348C20.7903 17.9421 20.4434 18.2753 20.0175 18.2753L17.4257 18.2911ZM21.1005 17.5824V12.0288C21.1005 11.5793 21.4685 11.2143 21.9101 11.2143C22.3517 11.2143 22.7197 11.5845 22.7197 12.0288V13.7742L24.9804 11.4999C25.2292 11.2496 25.6996 11.2715 25.9845 11.5581C26.2521 11.8273 26.3216 12.2823 26.0423 12.5683L24.1918 14.4195L26.179 17.0641C26.446 17.4079 26.3812 17.9435 26.0213 18.1959C25.6664 18.4604 25.1451 18.3722 24.891 18.0373L22.9984 15.5144L22.7197 15.7947V17.5665C22.7197 18.6219 21.1005 18.6626 21.1005 17.5824Z" fill="#FFE812"/>
</svg>
